#N canvas 0 22 1280 752 10;
#X declare -lib mrpeach;
#X obj 505 542 pix_lumaoffset;
#X msg 774 303 smooth \$1;
#X msg 143 296 fill \$1;
#X msg 772 208 0;
#X obj 762 173 autoscale 200 -200;
#X msg 768 436 0;
#X obj 766 399 autoscale 200 -200;
#X obj 762 148 inlet;
#X obj 765 363 inlet;
#X text 81 314 Fill;
#X obj 193 529 inlet;
#X obj 503 646 outlet;
#X text 501 667 OUT;
#X obj 360 158 loadbang;
#X obj 360 134 loadbang;
#X obj 110 320 cnv 10 10 10 empty empty empty 5 20 0 10 -262144 -66577
0;
#X text 768 267 Smooth;
#X obj 216 159 udpreceive 13002;
#X obj 212 126 import mrpeach;
#X obj 215 185 unpackOSC;
#X text 78 325 Send 1 to activate send a 0 to turn off;
#X text 768 283 Send 1 to activate send a 0 to turn off;
#X text 367 99 Activate Luma offset Send 1 to activate send a 0 to
turn off (off by default);
#X obj 215 224 routeOSC /fill /smooth /activate /reset;
#X text 810 366 Gap Spacing;
#X text 804 148 Pixel Distribution;
#X text 394 194 Reset all of the luma parameters send a 1 to reset
;
#X connect 0 0 11 0;
#X connect 1 0 0 0;
#X connect 2 0 0 0;
#X connect 3 0 0 1;
#X connect 4 0 0 1;
#X connect 5 0 0 2;
#X connect 6 0 0 2;
#X connect 7 0 4 0;
#X connect 8 0 6 0;
#X connect 10 0 0 0;
#X connect 13 0 0 0;
#X connect 14 0 13 0;
#X connect 17 0 19 0;
#X connect 19 0 23 0;
#X connect 23 1 2 0;
#X connect 23 2 1 0;
#X connect 23 3 0 0;
#X connect 23 4 5 0;
#X connect 23 4 3 0;
