#N canvas 0 22 1280 752 10;
#X declare -lib mrpeach;
#X msg -981 418 refract \$1;
#X msg -220 288 mag \$1;
#X msg -191 419 width \$1;
#X msg -222 363 height \$1;
#X obj -67 322 pix_refraction;
#X obj -430 438 hsl 160 15 0 100 0 0 empty empty empty -2 -8 0 10 -261752
-1 -1 0 1;
#X obj -430 395 hsl 160 15 0 100 0 0 empty empty empty -2 -8 0 10 -261752
-1 -1 0 1;
#X obj -547 455 autoscale 0 100;
#X obj -538 331 autoscale 0 100;
#X floatatom -814 304 3 0 0 1 - - -;
#X floatatom -814 277 3 0 0 1 - - -;
#X text -433 374 Refraction Height;
#X obj -914 307 inlet;
#X obj -70 386 outlet;
#X obj -537 287 inlet;
#X obj -540 411 inlet;
#X text -433 417 Refraction Width;
#X obj -975 371 hsl 160 30 0 10 0 0 empty empty empty -2 -8 0 10 -261752
-1 -1 0 1;
#X obj -70 268 inlet;
#X obj -922 343 autoscale 0 10;
#X obj -126 169 loadbang;
#X obj -126 145 loadbang;
#X obj -457 193 cnv 1 10 10 empty empty empty 5 20 0 10 -262144 -66577
0;
#X obj -457 463 cnv 10 10 10 empty empty empty 5 20 0 10 -262144 -66577
0;
#X obj -770 42 udpreceive 13002;
#X obj -774 9 import mrpeach;
#X obj -771 68 unpackOSC;
#X obj -770 108 routeOSC /activate /magnify;
#X text -976 278 Refraction Magnitude;
#X text -691 150 for all of these - 0 is deactivate (default) and 1
is activate;
#X connect 0 0 4 0;
#X connect 1 0 4 0;
#X connect 2 0 4 0;
#X connect 3 0 4 0;
#X connect 4 0 13 0;
#X connect 5 0 2 0;
#X connect 6 0 3 0;
#X connect 7 0 5 0;
#X connect 8 0 6 0;
#X connect 9 0 19 3;
#X connect 10 0 19 2;
#X connect 12 0 19 0;
#X connect 14 0 8 0;
#X connect 15 0 7 0;
#X connect 17 0 0 0;
#X connect 18 0 4 0;
#X connect 19 0 17 0;
#X connect 20 0 4 0;
#X connect 21 0 20 0;
#X connect 24 0 26 0;
#X connect 26 0 27 0;
#X connect 27 1 4 0;
#X connect 27 2 1 0;
