#N canvas 0 22 1280 752 10;
#X declare -lib mrpeach;
#X text 495 67 Example:;
#X obj 636 214 / 100;
#X msg 636 233 K1 \$1;
#X obj 505 180 t a b;
#X obj 636 274 / 100;
#X obj 636 334 / 100;
#X obj 686 214 / 100;
#X obj 686 274 / 100;
#X obj 686 334 / 100;
#X msg 686 233 D1 \$1;
#X msg 686 293 D2 \$1;
#X msg 686 353 D3 \$1;
#X msg 636 353 K3 \$1;
#X msg 636 293 K2 \$1;
#X obj 605 310 t a;
#X obj 605 250 t a;
#X obj 605 370 t a;
#X msg 402 334 texture 0;
#X obj 497 126 scaleXYZ;
#X obj 48 -8 pix_texture;
#X obj 131 462 hsl 150 30 0 0.7 0 0 empty empty empty -2 -8 0 10 -261752
-1 -1 0 1;
#X msg 378 142 force \$1;
#X msg 379 167 noise \$1;
#X obj 137 -6 autoscale 0 1;
#X obj 226 -6 autoscale 0 1;
#X obj 315 -8 autoscale 0 0.7;
#X obj 48 -34 inlet;
#X obj 87 -34 inlet;
#X text 85 -54 Force;
#X obj 126 -33 inlet;
#X text 124 -53 Noise;
#X text 47 -52 IN;
#X obj 165 -33 inlet;
#X text 161 -53 Height;
#X obj 691 527 loadbang;
#X msg 640 515 1;
#X text 213 -94 K1;
#X text 244 -131 K2;
#X text 290 -158 K3;
#X text 333 -193 D1;
#X text 379 -225 D2;
#X text 407 -261 D3;
#X obj 224 424 nbx 3 28 -1e+37 1e+37 0 0 empty empty empty 0 -8 0 16
-261752 -1 -1 0 256;
#X obj 135 228 hsl 60 10 0 1 0 0 empty empty empty 85 6 0 10 -204800
-1 -1 0 1;
#X floatatom 175 208 3 0 0 1 - - -;
#X obj 222 228 hsl 60 10 0 1 0 0 empty empty empty 85 6 0 10 -204800
-1 -1 0 1;
#X floatatom 262 208 3 0 0 1 - - -;
#X obj 135 268 hsl 60 10 0 1 0 0 empty empty empty 85 6 0 10 -204800
-1 -1 0 1;
#X floatatom 175 248 3 0 0 1 - - -;
#X obj 222 268 hsl 60 10 0 1 0 0 empty empty empty 85 6 0 10 -204800
-1 -1 0 1;
#X floatatom 262 248 3 0 0 1 - - -;
#X obj 136 308 hsl 60 10 0 1 0 0 empty empty empty 85 6 0 10 -204800
-1 -1 0 1;
#X floatatom 175 286 3 0 0 1 - - -;
#X obj 222 306 hsl 60 10 0 1 0 1 empty empty empty 6 0 0 63740 -204800
-1 -1 1680 0;
#X floatatom 262 286 3 0 0 1 - - -;
#X obj 658 61 loadbang;
#X text 650 42 Scale;
#X msg 607 59 16;
#X obj 658 91 loadbang;
#X msg 607 89 6;
#X obj 158 -73 autoscale 0 1;
#X obj 199 -112 autoscale 0 1;
#X obj 240 -139 autoscale 0 1;
#X obj 293 -173 autoscale 0 1;
#X obj 329 -206 autoscale 0 1;
#X obj 357 -242 autoscale 0 1;
#X text 130 210 K1;
#X text 128 250 K2;
#X text 130 288 K3;
#X text 217 210 D1;
#X text 217 250 D2;
#X text 217 288 D3;
#X obj 131 348 hsl 150 15 0 1 0 0 empty empty empty -2 -8 0 10 -261752
-1 -1 0 1;
#X obj 242 326 nbx 3 15 -1e+37 1e+37 0 0 empty empty empty 0 -8 0 12
-261752 -1 -1 0 256;
#X obj 131 398 hsl 150 15 0 1 0 0 empty empty empty -2 -8 0 10 -261752
-1 -1 0 1;
#X obj 242 376 nbx 3 15 -1e+37 1e+37 0 0 empty empty empty 0 -8 0 12
-261752 -1 -1 0 256;
#X text 129 323 F O R C E;
#X text 129 373 N O I S E;
#X text 128 431 H E I G H T;
#X obj 208 -38 inlet;
#X obj 247 -38 inlet;
#X obj 286 -37 inlet;
#X obj 325 -37 inlet;
#X obj 366 -37 inlet;
#X obj 405 -37 inlet;
#X msg 541 382 position \$1;
#X obj 502 532 newWave 50 50;
#X obj -20 330 cnv 10 10 10 empty empty empty 5 20 0 10 -4032 -66577
0;
#X obj 702 -127 udpreceive 13002;
#X obj 698 -160 import mrpeach;
#X obj 701 -101 unpackOSC;
#X obj 870 131 vradio 29 1 0 11 empty empty empty -10 -6 0 8 -204800
-1 -1 0;
#X text 920 215 Mode is the argument that represents this feature in
the old patch can take an argument of 1-8 in the osc message;
#X obj 701 -62 routeOSC /mode /texture;
#X text -9 134 I have taken out the buttons that were here;
#X connect 1 0 2 0;
#X connect 2 0 15 0;
#X connect 3 0 86 0;
#X connect 3 1 86 0;
#X connect 4 0 13 0;
#X connect 5 0 12 0;
#X connect 6 0 9 0;
#X connect 7 0 10 0;
#X connect 8 0 11 0;
#X connect 9 0 15 0;
#X connect 10 0 14 0;
#X connect 11 0 16 0;
#X connect 12 0 16 0;
#X connect 13 0 14 0;
#X connect 14 0 16 0;
#X connect 15 0 14 0;
#X connect 16 0 86 0;
#X connect 17 0 86 0;
#X connect 18 0 3 0;
#X connect 19 0 18 0;
#X connect 20 0 42 0;
#X connect 21 0 86 0;
#X connect 22 0 86 0;
#X connect 23 0 21 0;
#X connect 23 0 72 0;
#X connect 24 0 22 0;
#X connect 24 0 74 0;
#X connect 25 0 20 0;
#X connect 26 0 19 0;
#X connect 27 0 23 0;
#X connect 29 0 24 0;
#X connect 32 0 25 0;
#X connect 34 0 35 0;
#X connect 35 0 86 1;
#X connect 42 0 86 2;
#X connect 43 0 44 0;
#X connect 45 0 46 0;
#X connect 47 0 48 0;
#X connect 49 0 50 0;
#X connect 51 0 52 0;
#X connect 53 0 54 0;
#X connect 55 0 57 0;
#X connect 57 0 18 1;
#X connect 58 0 59 0;
#X connect 59 0 18 2;
#X connect 60 0 1 0;
#X connect 60 0 43 0;
#X connect 61 0 4 0;
#X connect 61 0 47 0;
#X connect 62 0 5 0;
#X connect 62 0 51 0;
#X connect 63 0 6 0;
#X connect 63 0 45 0;
#X connect 64 0 7 0;
#X connect 64 0 49 0;
#X connect 65 0 8 0;
#X connect 65 0 53 0;
#X connect 72 0 73 0;
#X connect 74 0 75 0;
#X connect 79 0 60 0;
#X connect 80 0 61 0;
#X connect 81 0 62 0;
#X connect 82 0 63 0;
#X connect 83 0 64 0;
#X connect 84 0 65 0;
#X connect 85 0 86 0;
#X connect 88 0 90 0;
#X connect 90 0 93 0;
#X connect 93 1 86 3;
#X connect 93 2 17 0;
